<?xml version="1.0" standalone="no"?>
<!DOCTYPE svg PUBLIC "-//W3C//DTD SVG 20010904//EN"
 "http://www.w3.org/TR/2001/REC-SVG-20010904/DTD/svg10.dtd">
<svg version="1.0" xmlns="http://www.w3.org/2000/svg"
 width="256.000000pt" height="256.000000pt" viewBox="0 0 256.000000 256.000000"
 preserveAspectRatio="xMidYMid meet">
<metadata>
Created by potrace 1.16, written by Peter Selinger 2001-2019
</metadata>
<g transform="translate(0.000000,256.000000) scale(0.100000,-0.100000)"
fill="#000000" stroke="none">
<path d="M1108 1735 c-107 -35 -149 -161 -85 -256 15 -22 52 -50 106 -79 96
-51 126 -83 115 -124 -14 -58 -115 -74 -199 -31 -27 13 -52 22 -57 19 -14 -9
-9 -82 8 -98 27 -28 121 -49 183 -42 71 8 117 32 155 80 28 34 31 45 31 105 0
93 -26 127 -140 181 -113 54 -141 95 -93 140 28 26 89 26 147 0 24 -11 45 -20
46 -20 2 0 6 13 10 28 8 40 -10 81 -41 92 -48 19 -136 21 -186 5z"/>
<path d="M14 1726 c-3 -8 -4 -29 -2 -48 l3 -33 83 -3 82 -3 0 -248 c0 -272 -3
-261 60 -261 63 0 60 -11 60 261 l0 248 83 3 82 3 0 45 0 45 -223 3 c-185 2
-223 0 -228 -12z"/>
<path d="M563 1734 c-10 -4 -13 -74 -13 -300 l0 -294 23 -5 c12 -3 90 -4 172
-3 l150 3 0 45 0 45 -112 3 -113 3 0 84 0 84 98 3 97 3 0 40 0 40 -97 3 -98 3
0 74 0 74 113 3 112 3 0 45 0 45 -160 2 c-88 1 -166 -1 -172 -3z"/>
<path d="M1414 1726 c-3 -8 -4 -29 -2 -48 l3 -33 83 -3 82 -3 0 -248 c0 -272
-3 -261 60 -261 63 0 60 -11 60 261 l0 248 83 3 82 3 0 45 0 45 -223 3 c-185
2 -223 0 -228 -12z"/>
</g>
</svg>
